<svg width="100" height="100" viewBox="0 0 100 100" fill="none" xmlns="http://www.w3.org/2000/svg">
<circle cx="50" cy="50" r="38.5" stroke="black" stroke-width="5"/>
<mask id="path-2-inside-1_1_2" fill="white">
<path d="M81 50.5C81 54.5053 80.2111 58.4714 78.6783 62.1718C77.1456 65.8723 74.8989 69.2346 72.0668 72.0668C69.2346 74.8989 65.8723 77.1456 62.1718 78.6783C58.4714 80.2111 54.5053 81 50.5 81L50.5 76.5472C53.9206 76.5472 57.3077 75.8735 60.4678 74.5645C63.628 73.2555 66.4995 71.3369 68.9182 68.9182C71.3369 66.4995 73.2555 63.628 74.5645 60.4679C75.8735 57.3077 76.5472 53.9206 76.5472 50.5H81Z"/>
</mask>
<path d="M81 50.5C81 54.5053 80.2111 58.4714 78.6783 62.1718C77.1456 65.8723 74.8989 69.2346 72.0668 72.0668C69.2346 74.8989 65.8723 77.1456 62.1718 78.6783C58.4714 80.2111 54.5053 81 50.5 81L50.5 76.5472C53.9206 76.5472 57.3077 75.8735 60.4678 74.5645C63.628 73.2555 66.4995 71.3369 68.9182 68.9182C71.3369 66.4995 73.2555 63.628 74.5645 60.4679C75.8735 57.3077 76.5472 53.9206 76.5472 50.5H81Z" stroke="black" stroke-width="10" stroke-miterlimit="3.63238" mask="url(#path-2-inside-1_1_2)"/>
</svg>
