<svg width="100" height="100" viewBox="0 0 100 100" fill="none" xmlns="http://www.w3.org/2000/svg">
<rect x="9" y="20" width="82" height="10" fill="#9C6D3B"/>
<rect x="9" y="20" width="82" height="10" fill="#9C6D3B"/>
<rect x="9" y="20" width="82" height="10" fill="#9C6D3B"/>
<rect x="9" y="20" width="82" height="10" fill="#9C6D3B"/>
<rect x="9" y="30" width="82" height="10" fill="#9C6D3B"/>
<rect x="9" y="30" width="82" height="10" fill="#9C6D3B"/>
<rect x="9" y="30" width="82" height="10" fill="#9C6D3B"/>
<rect x="9" y="30" width="82" height="10" fill="#9C6D3B"/>
<rect x="9" y="40" width="82" height="10" fill="#9C6D3B"/>
<rect x="9" y="40" width="82" height="10" fill="#9C6D3B"/>
<rect x="9" y="40" width="82" height="10" fill="#9C6D3B"/>
<rect x="9" y="40" width="82" height="10" fill="#9C6D3B"/>
<rect x="9" y="50" width="82" height="10" fill="#9C6D3B"/>
<rect x="9" y="50" width="82" height="10" fill="#9C6D3B"/>
<rect x="9" y="50" width="82" height="10" fill="#9C6D3B"/>
<rect x="9" y="50" width="82" height="10" fill="#9C6D3B"/>
<rect x="6" y="18" width="4" height="44" fill="black"/>
<rect x="6" y="22" width="4" height="87" transform="rotate(-90 6 22)" fill="black"/>
<rect x="6" y="32" width="4" height="86" transform="rotate(-90 6 32)" fill="black"/>
<rect x="6" y="42" width="4" height="87" transform="rotate(-90 6 42)" fill="black"/>
<rect x="6" y="52" width="4" height="87" transform="rotate(-90 6 52)" fill="black"/>
<rect x="6" y="62" width="4" height="87" transform="rotate(-90 6 62)" fill="black"/>
<rect x="46" y="60" width="6" height="29" fill="black"/>
<rect x="89" y="18" width="4" height="44" fill="black"/>
</svg>
