<svg width="75" height="59" viewBox="0 0 75 59" fill="none" xmlns="http://www.w3.org/2000/svg">
<rect x="11.8033" y="17.1639" width="48.3934" height="35.4098" fill="#720000"/>
<rect x="17.7049" y="30.7377" width="11.2131" height="21.8361" fill="#795024"/>
<circle cx="27.4426" cy="41.6557" r="0.885246" fill="#0F0F0F"/>
<rect width="11.2131" height="11.2131" transform="matrix(-1 0 0 1 42.4918 27.7869)" fill="black"/>
<rect x="31.694" y="28.1735" width="4.98361" height="5.02657" fill="#877828"/>
<rect x="37.0929" y="28.1735" width="4.98361" height="5.02657" fill="#877828"/>
<rect x="37.0929" y="33.5868" width="4.98361" height="5.02657" fill="#877828"/>
<rect x="31.694" y="33.5868" width="4.98361" height="5.02657" fill="#877828"/>
<rect width="11.2131" height="11.2131" transform="matrix(-1 0 0 1 56.6557 27.7869)" fill="black"/>
<rect x="45.8579" y="28.1735" width="4.98361" height="5.02657" fill="#877828"/>
<rect x="51.2568" y="28.1735" width="4.98361" height="5.02657" fill="#877828"/>
<rect x="51.2568" y="33.5868" width="4.98361" height="5.02657" fill="#877828"/>
<rect x="45.8579" y="33.5868" width="4.98361" height="5.02657" fill="#877828"/>
<path d="M36 3L67.1769 18.4918H4.82309L36 3Z" fill="#D9D9D9"/>
<path d="M36 3L65.1325 17.6066H6.86747L36 3Z" fill="#3F3F3F"/>
</svg>
