<svg width="200" height="62" viewBox="0 0 200 62" fill="none" xmlns="http://www.w3.org/2000/svg">
<path d="M20.4545 26.6575L34.8985 45.75L6.01047 45.75L20.4545 26.6575Z" fill="#1D6B33" stroke="black" stroke-width="2"/>
<path d="M59.6812 27.5374L74.9973 45.9378L46.1405 47.2808L59.6812 27.5374Z" fill="#1D6B33" stroke="black" stroke-width="2"/>
<path d="M98.6578 28.0419L112.747 47.398L83.8635 46.8643L98.6578 28.0419Z" fill="#1D6B33" stroke="black" stroke-width="2"/>
<path d="M139.48 28.0404L153.94 47.1205L125.052 47.1453L139.48 28.0404Z" fill="#1D6B33" stroke="black" stroke-width="2"/>
<path d="M179.798 28.1205L194.258 47.2007L165.37 47.2254L179.798 28.1205Z" fill="#1D6B33" stroke="black" stroke-width="2"/>
<path d="M20 15.6575L34.444 34.75L5.55597 34.75L20 15.6575Z" fill="#1D6B33" stroke="black" stroke-width="2"/>
<path d="M60.1105 16.5355L73.8687 36.1281L44.9988 35.104L60.1105 16.5355Z" fill="#1D6B33" stroke="black" stroke-width="2"/>
<path d="M96.9632 17.085L112.947 34.908L84.1598 37.3143L96.9632 17.085Z" fill="#1D6B33" stroke="black" stroke-width="2"/>
<path d="M139.616 17.0536L153.179 36.782L124.32 35.4709L139.616 17.0536Z" fill="#1D6B33" stroke="black" stroke-width="2"/>
<path d="M179.112 17.1228L193.909 35.9427L165.026 36.4813L179.112 17.1228Z" fill="#1D6B33" stroke="black" stroke-width="2"/>
<path d="M20 4.65748L34.444 23.75L5.55597 23.75L20 4.65748Z" fill="#1D6B33" stroke="black" stroke-width="2"/>
<path d="M58.0566 5.54139L73.375 23.9398L44.5183 25.2865L58.0566 5.54139Z" fill="#1D6B33" stroke="black" stroke-width="2"/>
<path d="M97.9953 6.07646L110.968 26.1976L82.1613 24.033L97.9953 6.07646Z" fill="#1D6B33" stroke="black" stroke-width="2"/>
<path d="M138.349 6.04424L152.319 25.4863L123.44 24.7756L138.349 6.04424Z" fill="#1D6B33" stroke="black" stroke-width="2"/>
<path d="M178.352 6.12054L192.795 25.214L163.907 25.2121L178.352 6.12054Z" fill="#1D6B33" stroke="black" stroke-width="2"/>
<path d="M19 57C19 57.5523 19.4477 58 20 58C20.5523 58 21 57.5523 21 57H19ZM21 57L21 46H19L19 57H21Z" fill="black"/>
<path d="M58.6553 57.87C58.6553 58.4222 59.103 58.87 59.6553 58.87C60.2076 58.87 60.6553 58.4222 60.6553 57.87H58.6553ZM60.6553 57.87V46.87H58.6553V57.87H60.6553Z" fill="black"/>
<path d="M97.033 58.3829C97.033 58.9352 97.4807 59.3829 98.033 59.3829C98.5853 59.3829 99.033 58.9352 99.033 58.3829H97.033ZM99.033 58.3829V47.3829H97.033V58.3829H99.033Z" fill="black"/>
<path d="M138.033 58.3829C138.033 58.9352 138.481 59.3829 139.033 59.3829C139.585 59.3829 140.033 58.9352 140.033 58.3829H138.033ZM140.033 58.3829V47.3829H138.033V58.3829H140.033Z" fill="black"/>
<path d="M178.351 58.4631C178.351 59.0154 178.799 59.4631 179.351 59.4631C179.903 59.4631 180.351 59.0154 180.351 58.4631H178.351ZM180.351 58.4631V47.4631H178.351V58.4631H180.351Z" fill="black"/>
</svg>
